<svg width="20" height="21" viewBox="0 0 20 21" fill="none" xmlns="http://www.w3.org/2000/svg">
<path d="M10 14.25C9.3543 14.25 8.70859 14.0382 8.15781 13.609L0 7.26562V16.125C0 17.1602 0.839453 18 1.875 18H18.125C19.1605 18 20 17.1605 20 16.125V7.26562L11.8438 13.6133C11.293 14.0391 10.6445 14.25 10 14.25ZM0.636328 6.17578L8.92539 12.625C9.55781 13.1172 10.4437 13.1172 11.0762 12.625L19.3652 6.17578C19.7305 5.86328 20 5.38281 20 4.875C20 3.83945 19.1602 3 18.125 3H1.875C0.839453 3 0 3.83945 0 4.875C0 5.38281 0.234766 5.86328 0.636328 6.17578Z" fill="#ECBE7B"/>
</svg>
