<svg width="20" height="21" viewBox="0 0 20 21" fill="none" xmlns="http://www.w3.org/2000/svg">
<g clip-path="url(#clip0_3_5)">
<path fill-rule="evenodd" clip-rule="evenodd" d="M10 0.5C15.523 0.5 20 5.08993 20 10.7529C20 15.2819 17.138 19.124 13.167 20.481C12.66 20.582 12.48 20.2618 12.48 19.9888C12.48 19.6508 12.492 18.5468 12.492 17.1748C12.492 16.2188 12.172 15.5949 11.813 15.2769C14.04 15.0229 16.38 14.1558 16.38 10.2178C16.38 9.09777 15.992 8.18382 15.35 7.46582C15.454 7.20682 15.797 6.16395 15.252 4.75195C15.252 4.75195 14.414 4.47722 12.505 5.80322C11.706 5.57622 10.85 5.46201 10 5.45801C9.15 5.46201 8.295 5.57622 7.497 5.80322C5.586 4.47722 4.746 4.75195 4.746 4.75195C4.203 6.16395 4.546 7.20682 4.649 7.46582C4.01 8.18382 3.619 9.09777 3.619 10.2178C3.619 14.1458 5.954 15.0262 8.175 15.2852C7.889 15.5412 7.63 15.9928 7.54 16.6558C6.97 16.9178 5.522 17.3712 4.63 15.8042C4.63 15.8042 4.101 14.8191 3.097 14.7471C3.097 14.7471 2.122 14.7341 3.029 15.3701C3.029 15.3701 3.684 15.6851 4.139 16.8701C4.139 16.8701 4.726 18.7001 7.508 18.0801C7.513 18.9371 7.522 19.7448 7.522 19.9888C7.522 20.2598 7.338 20.5769 6.839 20.4819C2.865 19.1269 0 15.2829 0 10.7529C0 5.08993 4.478 0.5 10 0.5Z" fill="#ECBE7B"/>
</g>
<defs>
<clipPath id="clip0_3_5">
<rect width="20" height="20" fill="white" transform="translate(0 0.5)"/>
</clipPath>
</defs>
</svg>
