<svg width="20" height="21" viewBox="0 0 20 21" fill="none" xmlns="http://www.w3.org/2000/svg">
<path fill-rule="evenodd" clip-rule="evenodd" d="M10 15.5C12.7614 15.5 15 13.2614 15 10.5C15 7.73857 12.7614 5.5 10 5.5C7.23857 5.5 5 7.73857 5 10.5C5 13.2614 7.23857 15.5 10 15.5ZM10 13.8333C11.8409 13.8333 13.3333 12.3409 13.3333 10.5C13.3333 8.65905 11.8409 7.16667 10 7.16667C8.15905 7.16667 6.66667 8.65905 6.66667 10.5C6.66667 12.3409 8.15905 13.8333 10 13.8333Z" fill="#ECBE7B"/>
<path d="M15 4.66663C14.5397 4.66663 14.1667 5.03973 14.1667 5.49996C14.1667 5.96019 14.5397 6.33329 15 6.33329C15.4602 6.33329 15.8333 5.96019 15.8333 5.49996C15.8333 5.03973 15.4602 4.66663 15 4.66663Z" fill="#ECBE7B"/>
<path fill-rule="evenodd" clip-rule="evenodd" d="M1.37831 4.06342C0.833344 5.13298 0.833344 6.53312 0.833344 9.33337V11.6667C0.833344 14.467 0.833344 15.8671 1.37831 16.9366C1.85768 17.8775 2.62258 18.6424 3.56339 19.1217C4.63295 19.6667 6.03308 19.6667 8.83334 19.6667H11.1667C13.9669 19.6667 15.3671 19.6667 16.4366 19.1217C17.3774 18.6424 18.1423 17.8775 18.6217 16.9366C19.1667 15.8671 19.1667 14.467 19.1667 11.6667V9.33337C19.1667 6.53312 19.1667 5.13298 18.6217 4.06342C18.1423 3.12261 17.3774 2.35771 16.4366 1.87834C15.3671 1.33337 13.9669 1.33337 11.1667 1.33337H8.83334C6.03308 1.33337 4.63295 1.33337 3.56339 1.87834C2.62258 2.35771 1.85768 3.12261 1.37831 4.06342ZM11.1667 3.00004H8.83334C7.40571 3.00004 6.43522 3.00134 5.68508 3.06262C4.95438 3.12232 4.58071 3.23053 4.32004 3.36335C3.69283 3.68293 3.1829 4.19287 2.86332 4.82007C2.7305 5.08074 2.62229 5.45441 2.56259 6.18511C2.50131 6.93525 2.50001 7.90574 2.50001 9.33337V11.6667C2.50001 13.0944 2.50131 14.0648 2.56259 14.815C2.62229 15.5457 2.7305 15.9194 2.86332 16.18C3.1829 16.8072 3.69283 17.3171 4.32004 17.6367C4.58071 17.7695 4.95438 17.8778 5.68508 17.9375C6.43522 17.9987 7.40571 18 8.83334 18H11.1667C12.5943 18 13.5648 17.9987 14.3149 17.9375C15.0457 17.8778 15.4193 17.7695 15.68 17.6367C16.3072 17.3171 16.8171 16.8072 17.1367 16.18C17.2695 15.9194 17.3778 15.5457 17.4374 14.815C17.4987 14.0648 17.5 13.0944 17.5 11.6667V9.33337C17.5 7.90574 17.4987 6.93525 17.4374 6.18511C17.3778 5.45441 17.2695 5.08074 17.1367 4.82007C16.8171 4.19287 16.3072 3.68293 15.68 3.36335C15.4193 3.23053 15.0457 3.12232 14.3149 3.06262C13.5648 3.00134 12.5943 3.00004 11.1667 3.00004Z" fill="#ECBE7B"/>
</svg>
