<svg width="20" height="21" viewBox="0 0 20 21" fill="none" xmlns="http://www.w3.org/2000/svg">
<path d="M17.3916 1.70153H2.70696C2.51769 1.69266 2.32852 1.72121 2.15029 1.78554C1.97206 1.84987 1.80827 1.94872 1.66829 2.07642C1.52832 2.20413 1.4149 2.35819 1.33455 2.52978C1.25419 2.70137 1.20847 2.88712 1.2 3.0764V17.7931C1.21108 18.1892 1.37342 18.5661 1.65366 18.8462C1.9339 19.1265 2.3108 19.2888 2.70696 19.3H17.3916C17.7767 19.2828 18.1398 19.1154 18.4031 18.8337C18.6663 18.552 18.8086 18.1785 18.7996 17.7931V3.0764C18.8028 2.89217 18.7682 2.70925 18.6982 2.53883C18.6281 2.36842 18.5239 2.21412 18.3921 2.08537C18.2603 1.95664 18.1035 1.8562 17.9315 1.79019C17.7595 1.72419 17.5758 1.69402 17.3916 1.70153ZM6.69987 16.3742H4.13693V8.53194H6.69987V16.3742ZM5.4789 7.34401C5.30005 7.35025 5.12185 7.31943 4.95549 7.2535C4.78912 7.18757 4.63818 7.08796 4.51216 6.96091C4.38614 6.83386 4.28775 6.68213 4.22318 6.51524C4.1586 6.34835 4.12924 6.16991 4.13693 5.99114C4.12902 5.81042 4.15897 5.63006 4.22487 5.46161C4.29077 5.29315 4.39116 5.14033 4.51958 5.01295C4.64801 4.88556 4.80164 4.78643 4.97063 4.72191C5.13963 4.65738 5.32025 4.62889 5.5009 4.63826C5.67974 4.63204 5.85795 4.66284 6.02431 4.72877C6.19068 4.7947 6.34162 4.89432 6.46763 5.02137C6.59366 5.14842 6.69205 5.30015 6.75662 5.46703C6.8212 5.63392 6.85056 5.81236 6.84287 5.99114C6.85078 6.17185 6.82082 6.35221 6.75492 6.52066C6.68902 6.68912 6.58864 6.84194 6.46022 6.96932C6.33179 7.09671 6.17815 7.19585 6.00916 7.26037C5.84016 7.3249 5.65955 7.35338 5.4789 7.34401ZM15.8737 16.3742H13.2997V12.0846C13.2997 11.0617 12.9367 10.3578 12.0237 10.3578C11.7402 10.3602 11.4642 10.4503 11.2339 10.6157C11.0034 10.7811 10.8298 11.0137 10.7368 11.2817C10.6653 11.4825 10.6354 11.6958 10.6488 11.9086V16.3742H8.11884V8.53194H10.6488V9.63184C10.8737 9.2186 11.2084 8.87566 11.6161 8.64072C12.0237 8.40589 12.4884 8.28829 12.9587 8.30093C14.6197 8.30093 15.8737 9.40086 15.8737 11.7436V16.3742Z" fill="#ECBE7B"/>
</svg>
