<svg width="20" height="27" viewBox="0 0 20 27" fill="none" xmlns="http://www.w3.org/2000/svg">
<g clip-path="url(#clip0_6_44)">
<path fill-rule="evenodd" clip-rule="evenodd" d="M13.2032 22.7589L3.14473 22.7642L3.14368 20.6337L13.2016 20.6284L13.2032 22.7589ZM20 10.6953L18.2789 0.868408L16.1631 1.23262L17.8837 11.0589L20 10.6958V10.6953ZM13.4453 17.8974L3.42947 16.9821L3.2321 19.1037L13.2479 20.0179L13.4453 17.8974ZM14.1058 15.1174L4.39262 12.5279L3.83473 14.5858L13.5484 17.1747L14.1058 15.1174ZM15.3742 12.6805L6.70999 7.61367L5.61841 9.44841L14.2826 14.5153L15.3737 12.681L15.3742 12.6805ZM17.4984 11.1889L11.831 2.94841L10.0563 4.14841L15.7237 12.3884L17.4984 11.1889Z" fill="#ECBE7B"/>
<path fill-rule="evenodd" clip-rule="evenodd" d="M14.9116 15.7516V24.46H1.71842V15.7516H0V26.1316H16.6211V15.7516H14.9116Z" fill="#ECBE7B"/>
</g>
<defs>
<clipPath id="clip0_6_44">
<rect width="20" height="25.2632" fill="white" transform="translate(0 0.868408)"/>
</clipPath>
</defs>
</svg>
