<svg width="20" height="21" viewBox="0 0 20 21" fill="none" xmlns="http://www.w3.org/2000/svg">
<g clip-path="url(#clip0_2004_19)">
<path fill-rule="evenodd" clip-rule="evenodd" d="M7.98844 13.0861V7.4743C9.98064 8.41173 11.5236 9.31731 13.3485 10.2936C11.8433 11.1283 9.98064 12.0649 7.98844 13.0861ZM19.091 4.68328C18.7474 4.23052 18.1617 3.87809 17.5381 3.76141C15.7053 3.41336 4.27099 3.41237 2.43915 3.76141C1.93911 3.85515 1.49384 4.08173 1.11133 4.43377C-0.500363 5.92967 0.00466618 13.9517 0.393147 15.2512C0.556507 15.8136 0.76769 16.2193 1.03365 16.4855C1.37631 16.8376 1.84547 17.08 2.38436 17.1887C3.89345 17.5008 11.668 17.6753 17.5062 17.2355C18.0441 17.1418 18.5202 16.8916 18.8958 16.5246C20.3859 15.0347 20.2843 6.56213 19.091 4.68328Z" fill="#ECBE7B"/>
</g>
<defs>
<clipPath id="clip0_2004_19">
<rect width="20" height="20" fill="white" transform="translate(0 0.5)"/>
</clipPath>
</defs>
</svg>
